<svg class="svg-icon" style="width: 1em;height: 1em;vertical-align: middle;fill: currentColor;overflow: hidden;" viewBox="0 0 1024 1024" version="1.1" xmlns="http://www.w3.org/2000/svg"><path d="M512 1024C229.21216 1024 0 794.78784 0 512S229.21216 0 512 0 1024 229.21216 1024 512 794.78784 1024 512 1024z m0-81.92C749.52704 942.08 942.08 749.52704 942.08 512S749.52704 81.92 512 81.92 81.92 274.47296 81.92 512 274.47296 942.08 512 942.08zM286.72 573.44a225.28 225.28 0 0 0 450.56 0" fill="#000000" /><path d="M368.64 368.64m-81.92 0a81.92 81.92 0 1 0 163.84 0 81.92 81.92 0 1 0-163.84 0Z" fill="#000000" /><path d="M655.36 368.64m-81.92 0a81.92 81.92 0 1 0 163.84 0 81.92 81.92 0 1 0-163.84 0Z" fill="#000000" /></svg>